<svg version="1.1" id="Layer_1" xmlns="http://www.w3.org/2000/svg"
    xmlns:xlink="http://www.w3.org/1999/xlink" x="0px" y="0px"
    width="100%" viewBox="0 0 600 491" enable-background="new 0 0 600 491" xml:space="preserve">
<path fill="#9EE3A8" opacity="1.000000" stroke="none" 
d="
M601.000000,489.000000 
C601.000000,489.991974 601.000000,490.983948 601.000000,492.000000 
C583.979126,492.000000 566.958191,492.000000 549.150513,491.734924 
C540.299622,491.314667 532.235596,491.064362 524.171326,491.057159 
C521.447815,491.054718 518.723816,491.668091 516.000000,492.000000 
C456.645782,492.000000 397.291534,492.000000 337.830139,491.689148 
C333.656403,490.553741 329.575378,489.794067 325.525604,488.893982 
C299.361572,483.079010 274.495667,474.081360 251.826431,459.435486 
C238.153976,450.602142 225.241806,440.908295 214.047119,429.015564 
C214.016052,429.028351 214.077621,429.055298 214.540985,429.058289 
C222.330109,429.062653 229.656601,428.996918 236.981476,429.077881 
C258.956726,429.320740 280.385742,425.779236 301.185944,418.962921 
C399.819946,386.640320 460.289307,291.728058 448.127075,188.782654 
C444.275482,156.181671 433.475861,126.042496 415.330536,98.791985 
C407.445679,86.950638 397.865814,76.237999 389.060883,64.941895 
C389.065948,64.871086 388.925079,64.853325 389.359619,64.917618 
C391.541473,65.319542 393.292816,65.637650 395.035461,65.997925 
C407.421844,68.558731 420.157806,70.038162 432.126495,73.896652 
C469.932343,86.084610 502.000916,107.191849 528.116333,137.432434 
C543.770874,155.559753 555.951904,175.591415 565.198853,197.582642 
C573.158081,216.511261 577.750427,236.303391 579.820801,256.600189 
C580.835205,266.544556 580.513184,276.710846 579.866943,286.716644 
C579.118225,298.309174 577.825195,309.914764 575.925842,321.375031 
C571.543457,347.817657 560.752197,371.786011 546.311707,394.179749 
C541.830383,401.129242 536.921753,407.803253 532.282410,414.497101 
C534.628845,417.284180 536.765869,420.020264 539.106323,422.569489 
C551.537231,436.108978 564.051147,449.572205 576.466858,463.125488 
C581.145691,468.232910 585.520386,473.621277 590.254639,478.674652 
C593.646118,482.294708 597.405029,485.570587 601.000000,489.000000 
z"/>
<path fill="#2CB677" opacity="1.000000" stroke="none" 
d="
M207.000000,0.999999 
C225.020889,1.000000 243.041794,1.000000 261.397827,1.415981 
C262.743469,2.220114 263.722931,2.775532 264.769440,2.969988 
C273.255524,4.546830 281.826019,5.740228 290.234009,7.651968 
C307.370514,11.548326 323.588470,18.170473 338.630737,27.075504 
C350.626160,34.176773 361.899231,42.554264 373.155365,50.824688 
C378.800293,54.972305 383.692474,60.144501 388.925079,64.853325 
C388.925079,64.853325 389.065948,64.871086 388.625244,64.960663 
C372.101898,65.082771 355.880371,63.780254 339.966614,65.435966 
C310.212921,68.531631 282.218506,78.135834 256.674194,93.896782 
C246.979797,99.878273 238.138489,107.242371 228.609970,114.076935 
C227.367081,115.131241 226.422577,116.084892 225.191986,117.163162 
C216.754379,125.559799 208.123978,133.417984 200.546677,142.186218 
C182.340561,163.253891 169.588455,187.557922 161.401703,214.042252 
C151.998260,244.462570 149.517731,275.588531 153.883530,307.274048 
C158.181152,338.464813 168.530457,367.462677 185.801605,393.637878 
C194.087509,406.195526 204.582886,417.295288 214.077637,429.055298 
C214.077621,429.055298 214.016052,429.028351 213.573578,429.002960 
C159.729736,428.984985 106.328400,428.994965 52.927052,428.993042 
C49.937721,428.992920 46.948391,428.894257 43.618935,428.611633 
C30.501122,428.275970 17.723438,428.170166 4.581717,428.019745 
C4.270001,426.690582 3.815346,424.989410 4.466543,424.197083 
C6.720351,421.454651 9.394550,419.062134 11.844077,416.475250 
C17.476479,410.526917 23.164978,404.627686 28.658052,398.552429 
C36.481869,389.899445 44.196327,381.146179 51.871460,372.360596 
C57.871143,365.492798 63.740002,358.510773 69.769409,351.459747 
C69.048820,350.683807 68.048286,349.798004 67.275200,348.745209 
C55.305626,332.445129 44.505894,315.533844 37.061443,296.538513 
C28.319872,274.233521 22.286938,251.421570 22.075722,227.369629 
C21.972450,215.609863 22.452160,203.831573 23.082954,192.083954 
C23.442711,185.384079 23.895506,178.530838 25.613997,172.095856 
C28.995432,159.433884 32.609272,146.747757 37.405113,134.575195 
C41.773243,123.488228 47.162716,112.661095 53.342339,102.471664 
C59.177326,92.850494 66.368965,84.000420 73.457336,75.209053 
C78.268784,69.241653 83.697426,63.712017 89.284286,58.447426 
C94.333748,53.689224 99.857483,49.405640 105.383194,45.189449 
C111.082108,40.841099 116.723869,36.267956 122.948631,32.792553 
C133.195831,27.071339 143.696991,21.708252 154.445816,17.004881 
C170.467102,9.994440 187.062256,4.662967 204.623444,2.915069 
C205.470764,2.830732 206.210281,1.663141 207.000000,0.999999 
z"/>

<path fill="#6ACA90" opacity="1.000000" stroke="none" 
d="
M516.468628,492.000000 
C518.723816,491.668091 521.447815,491.054718 524.171326,491.057159 
C532.235596,491.064362 540.299622,491.314667 548.681885,491.734924 
C538.312439,492.000000 527.624878,492.000000 516.468628,492.000000 
z"/>
<path fill="#1E7048" opacity="1.000000" stroke="none" 
d="
M228.908356,113.976288 
C238.138489,107.242371 246.979797,99.878273 256.674194,93.896782 
C282.218506,78.135834 310.212921,68.531631 339.966614,65.435966 
C355.880371,63.780254 372.101898,65.082771 388.620178,65.031471 
C397.865814,76.237999 407.445679,86.950638 415.330536,98.791985 
C433.475861,126.042496 444.275482,156.181671 448.127075,188.782654 
C460.289307,291.728058 399.819946,386.640320 301.185944,418.962921 
C280.385742,425.779236 258.956726,429.320740 236.981476,429.077881 
C229.656601,428.996918 222.330109,429.062653 214.540985,429.058289 
C204.582886,417.295288 194.087509,406.195526 185.801605,393.637878 
C168.530457,367.462677 158.181152,338.464813 153.883530,307.274048 
C149.517731,275.588531 151.998260,244.462570 161.401703,214.042252 
C169.588455,187.557922 182.340561,163.253891 200.546677,142.186218 
C208.123978,133.417984 216.754379,125.559799 225.201111,117.628647 
C225.496323,124.450043 225.496323,130.930573 225.496323,136.682739 
C219.379837,139.145432 213.641571,140.897018 208.433151,143.650757 
C187.155380,154.900543 183.192307,182.430389 199.784866,199.914078 
C208.612778,209.216125 219.951462,213.595398 231.433014,218.010300 
C240.470001,221.485214 249.296509,225.378250 255.883759,232.893585 
C262.740143,240.715958 263.134827,249.653229 260.063354,259.018250 
C257.341187,267.318359 251.020111,271.437958 242.742935,272.724396 
C229.322769,274.810181 218.000015,270.728333 209.627304,259.996857 
C204.902435,253.940857 201.026993,247.222137 196.632263,240.595932 
C192.008286,243.430832 187.147064,246.411194 182.227173,249.427505 
C190.585052,269.765228 203.720779,284.117401 225.689621,289.512146 
C225.689621,297.006439 225.689621,304.401184 225.689621,311.645264 
C231.182388,311.645264 236.100159,311.645264 241.314178,311.645264 
C241.314178,304.329498 241.314178,297.368378 241.314178,291.781433 
C249.663681,288.361267 258.056244,286.437347 264.685547,281.923645 
C284.472137,268.451599 287.838226,231.652390 264.829163,216.043823 
C255.750031,209.884857 245.225128,205.832642 235.279587,200.983078 
C227.245499,197.065567 218.687424,194.094070 212.722900,186.834610 
C205.421570,177.948090 207.864792,162.528076 217.927261,157.500534 
C225.669418,153.632248 242.612976,151.638840 251.817276,161.947327 
C256.377502,167.054581 260.229126,172.794510 264.633240,178.551346 
C269.190521,175.503189 273.914886,172.343277 278.864746,169.032562 
C270.830597,152.785080 259.071838,141.728973 240.908142,137.650925 
C240.908142,129.850037 240.908142,122.117851 240.908142,113.976280 
C236.533234,113.976280 232.720795,113.976280 228.908356,113.976288 
z"/>
<path fill="#F5F5F5" opacity="1.000000" stroke="none" 
d="
M228.609970,114.076935 
C232.720795,113.976280 236.533234,113.976280 240.908142,113.976280 
C240.908142,122.117851 240.908142,129.850037 240.908142,137.650925 
C259.071838,141.728973 270.830597,152.785080 278.864746,169.032562 
C273.914886,172.343277 269.190521,175.503189 264.633240,178.551346 
C260.229126,172.794510 256.377502,167.054581 251.817276,161.947327 
C242.612976,151.638840 225.669418,153.632248 217.927261,157.500534 
C207.864792,162.528076 205.421570,177.948090 212.722900,186.834610 
C218.687424,194.094070 227.245499,197.065567 235.279587,200.983078 
C245.225128,205.832642 255.750031,209.884857 264.829163,216.043823 
C287.838226,231.652390 284.472137,268.451599 264.685547,281.923645 
C258.056244,286.437347 249.663681,288.361267 241.314178,291.781433 
C241.314178,297.368378 241.314178,304.329498 241.314178,311.645264 
C236.100159,311.645264 231.182388,311.645264 225.689621,311.645264 
C225.689621,304.401184 225.689621,297.006439 225.689621,289.512146 
C203.720779,284.117401 190.585052,269.765228 182.227173,249.427505 
C187.147064,246.411194 192.008286,243.430832 196.632263,240.595932 
C201.026993,247.222137 204.902435,253.940857 209.627304,259.996857 
C218.000015,270.728333 229.322769,274.810181 242.742935,272.724396 
C251.020111,271.437958 257.341187,267.318359 260.063354,259.018250 
C263.134827,249.653229 262.740143,240.715958 255.883759,232.893585 
C249.296509,225.378250 240.470001,221.485214 231.433014,218.010300 
C219.951462,213.595398 208.612778,209.216125 199.784866,199.914078 
C183.192307,182.430389 187.155380,154.900543 208.433151,143.650757 
C213.641571,140.897018 219.379837,139.145432 225.496323,136.682739 
C225.496323,130.930573 225.496323,124.450043 225.487213,117.504021 
C226.422577,116.084892 227.367081,115.131241 228.609970,114.076935 
z"/>
<path fill="#6AC990" opacity="1.000000" stroke="none" 
d="
M43.618935,428.611603 
C31.111752,428.824585 18.264441,428.807739 5.181443,428.427612 
C17.723438,428.170166 30.501122,428.275970 43.618935,428.611603 
z"/>

</svg>